
<svg version="1.1" xmlns="http://www.w3.org/2000/svg" xmlns:xlink="http://www.w3.org/1999/xlink" x="0px" y="0px" viewBox="0 0 1024 1024" style="font-size: 32px;" xml:space="preserve" width="16" height="16">
<g id="设计">
	<g>
		<path style="fill:#6E6E96;" d="M586.466,968c-63.78,0-123.928-27.821-165.292-76.481c-1.856-1.659-3.52-3.533-4.951-5.578
			l-3.449-4.926c-2.624-3.503-5.233-7.229-7.758-11.079L217.912,602.724c-8.724-12.459-12.064-27.619-9.407-42.688
			s10.981-28.173,23.44-36.896l5.031-3.522c12.459-8.724,27.623-12.063,42.688-9.408c15.069,2.657,28.173,10.982,36.896,23.44
			l45.237,64.605c1.627,2.323,3.898,1.912,4.8,1.63c0.901-0.284,2.997-1.251,2.997-4.087V321.143
			c0-31.509,25.634-57.143,57.143-57.143h6.143c31.509,0,57.143,25.634,57.143,57.143v132.383
			C500.425,442.728,515.025,436,531.166,436h6.143c31.509,0,57.143,25.634,57.143,57.143v9.525
			c10.401-10.797,25.002-17.525,41.143-17.525h6.143c31.508,0,57.143,25.635,57.143,57.144v9.525
			c10.401-10.797,25.002-17.525,41.143-17.525h6.143c31.509,0,57.143,25.634,57.143,57.143V749.74
			c0,57.879-22.364,112.454-62.972,153.674c-40.715,41.328-94.932,64.264-152.662,64.583C587.274,967.999,586.867,968,586.466,968z
			 M269.586,525.323c-8.363,0-16.486,2.535-23.433,7.399l-5.031,3.522c-18.583,13.013-23.116,38.718-10.104,57.301l187.173,267.312
			c0.047,0.067,0.093,0.136,0.139,0.205c2.387,3.644,4.851,7.163,7.324,10.46c0.052,0.069,0.103,0.14,0.153,0.212l3.522,5.029
			c0.792,1.133,1.724,2.16,2.768,3.055c0.326,0.278,0.628,0.583,0.905,0.91c38.324,45.335,94.208,71.271,153.465,71.271
			c0.375,0,0.745-0.001,1.12-0.003c110.127-0.608,199.722-91.34,199.722-202.257V591.429c0-22.687-18.457-41.143-41.143-41.143
			h-6.143c-22.687,0-41.143,18.456-41.143,41.143c0,4.418-3.582,8-8,8s-8-3.582-8-8v-49.143c0-22.687-18.457-41.144-41.143-41.144
			h-6.143c-22.686,0-41.143,18.457-41.143,41.144c0,4.418-3.582,8-8,8s-8-3.582-8-8v-49.144c0-22.687-18.457-41.143-41.143-41.143
			h-6.143c-22.686,0-41.143,18.456-41.143,41.143c0,4.418-3.582,8-8,8s-8-3.582-8-8v-172c0-22.687-18.457-41.143-41.143-41.143
			h-6.143c-22.687,0-41.143,18.456-41.143,41.143v274.654c0,9.035-5.568,16.629-14.186,19.346
			c-8.618,2.719-17.535-0.311-22.717-7.711l-45.237-64.605c-6.272-8.958-15.708-14.946-26.568-16.861
			C274.448,525.535,272.007,525.323,269.586,525.323z"></path>
		<path style="fill:#6E6E96;" d="M579.238,440c-2.047,0-4.095-0.781-5.657-2.343c-3.125-3.125-3.125-8.189,0-11.314
			c78.067-78.067,78.067-205.094,0-283.161c-78.068-78.068-205.094-78.068-283.162,0c-78.067,78.067-78.067,205.094,0,283.161
			c3.125,3.125,3.125,8.189,0,11.314c-3.124,3.124-8.189,3.123-11.313,0c-40.84-40.84-63.331-95.14-63.331-152.895
			c0-57.756,22.491-112.056,63.331-152.896c40.84-40.839,95.139-63.33,152.895-63.33s112.055,22.491,152.895,63.33
			c40.84,40.84,63.331,95.14,63.331,152.896c0,57.755-22.491,112.055-63.331,152.895C583.333,439.219,581.285,440,579.238,440z"></path>
		<path style="fill:#6E6E96;" d="M526.648,387.41c-2.047,0-4.095-0.781-5.657-2.343c-3.125-3.125-3.125-8.189,0-11.314
			c49.07-49.069,49.07-128.912,0-177.981C497.221,172.001,465.617,158.91,432,158.91s-65.221,13.091-88.991,36.861
			c-49.07,49.069-49.07,128.912,0,177.981c3.125,3.125,3.125,8.189,0,11.314c-3.124,3.123-8.189,3.123-11.313,0
			c-55.309-55.309-55.309-145.302,0-200.61c55.308-55.307,145.302-55.307,200.609,0c55.309,55.309,55.309,145.302,0,200.61
			C530.743,386.629,528.695,387.41,526.648,387.41z"></path>
	</g>
</g>
<g id="参考线_1_">
</g>
</svg>