<svg xmlns:dc="http://purl.org/dc/elements/1.1/" xmlns:cc="http://creativecommons.org/ns#" xmlns:rdf="http://www.w3.org/1999/02/22-rdf-syntax-ns#" xmlns:svg="http://www.w3.org/2000/svg" xmlns="http://www.w3.org/2000/svg" id="svg7" height="32" width="32" version="1.0" preserveAspectRatio="xMidYMid meet" viewBox="0 0 51 51" style="font-size: 32px; color: rgb(216, 31, 6);">
  <metadata id="metadata11" style="fill: rgb(216, 31, 6);">
    <rdf:rdf style="fill: rgb(216, 31, 6);">
      <cc:work rdf:about="" style="fill: rgb(216, 31, 6);">
        <dc:format style="fill: rgb(216, 31, 6);">image/svg+xml</dc:format>
        <dc:type rdf:resource="http://purl.org/dc/dcmitype/StillImage" style="fill: rgb(216, 31, 6);"></dc:type>
      </cc:work>
    </rdf:rdf>
  </metadata>
  <defs id="defs3" style="fill: rgb(216, 31, 6);">
    <pattern y="0" x="0" height="6" width="6" patternUnits="userSpaceOnUse" id="EMFhbasepattern" style="fill: rgb(216, 31, 6);"></pattern>
  </defs>
  <path id="path5" d="  M 24.770028,28.116787   L 23.577619,28.166888   L 22.415272,28.317192   L 21.272965,28.527617   L 20.170739,28.828224   L 19.078533,29.229034   L 18.056468,29.679944   L 17.054445,30.211017   L 16.112542,30.812231   L 15.220741,31.463547   L 14.359001,32.205044   L 13.557382,33.016683   L 12.835925,33.848363   L 12.154548,34.740164   L 11.543314,35.692087   L 15.511328,38.086924   L 16.02236,37.325386   L 16.583493,36.603929   L 17.204748,35.932573   L 17.886124,35.301298   L 18.617602,34.750185   L 19.38916,34.259193   L 20.190779,33.828323   L 21.032479,33.477614   L 21.944321,33.177007   L 22.856162,32.966582   L 23.788044,32.846339   L 24.770028,32.796238   L 25.741991,32.846339   L 26.693913,32.966582   L 27.615775,33.177007   L 28.497556,33.477614   L 29.359297,33.828323   L 30.180956,34.259193   L 30.932474,34.750185   L 31.663951,35.301298   L 32.345327,35.932573   L 32.966582,36.603929   L 33.537736,37.325386   L 34.038748,38.086924   L 34.038748,38.086924   L 38.006762,35.692087   L 37.395527,34.740164   L 36.714151,33.848363   L 35.992694,33.016683   L 35.171035,32.205044   L 34.329335,31.463547   L 33.437533,30.812231   L 32.475591,30.211017   L 31.493607,29.679944   L 30.451503,29.229034   L 29.389357,28.828224   L 28.267091,28.527617   L 27.134804,28.317192   L 25.972456,28.166888   L 24.770028,28.116787  z    M 34.038748,12.545338   L 33.527716,12.575398   L 33.056764,12.705661   L 32.615874,12.886026   L 32.205044,13.136532   L 31.844316,13.457179   L 31.543708,13.807888   L 31.303223,14.228738   L 31.102818,14.669628   L 30.982575,15.150599   L 30.952514,15.651611   L 30.982575,16.152623   L 31.102818,16.643615   L 31.303223,17.094526   L 31.543708,17.505355   L 31.844316,17.866084   L 32.205044,18.186732   L 32.615874,18.427217   L 33.056764,18.607582   L 33.527716,18.747865   L 34.038748,18.777926   L 34.53976,18.747865   L 35.010711,18.607582   L 35.451601,18.427217   L 35.84239,18.186732   L 36.223159,17.866084   L 36.523767,17.505355   L 36.774273,17.094526   L 36.964657,16.643615   L 37.064859,16.152623   L 37.114961,15.651611   L 37.064859,15.150599   L 36.964657,14.669628   L 36.774273,14.228738   L 36.523767,13.807888   L 36.223159,13.457179   L 35.84239,13.136532   L 35.451601,12.886026   L 35.010711,12.705661   L 34.53976,12.575398   L 34.038748,12.545338  z    M 15.511328,12.545338   L 15.010316,12.575398   L 14.539365,12.705661   L 14.098475,12.886026   L 13.697665,13.136532   L 13.346957,13.457179   L 13.026309,13.807888   L 12.765783,14.228738   L 12.585419,14.669628   L 12.485216,15.150599   L 12.425095,15.651611   L 12.485216,16.152623   L 12.585419,16.643615   L 12.765783,17.094526   L 13.026309,17.505355   L 13.346957,17.866084   L 13.697665,18.186732   L 14.098475,18.427217   L 14.539365,18.607582   L 15.010316,18.747865   L 15.511328,18.777926   L 16.02236,18.747865   L 16.493311,18.607582   L 16.934202,18.427217   L 17.345032,18.186732   L 17.68572,17.866084   L 18.006367,17.505355   L 18.246853,17.094526   L 18.427217,16.643615   L 18.567501,16.152623   L 18.617602,15.651611   L 18.567501,15.150599   L 18.427217,14.669628   L 18.246853,14.228738   L 18.006367,13.807888   L 17.68572,13.457179   L 17.345032,13.136532   L 16.934202,12.886026   L 16.493311,12.705661   L 16.02236,12.575398   L 15.511328,12.545338  z    M 24.770028,0.080161902   L 24.770028,0.080161902   L 26.333185,0.13026309   L 27.876301,0.27054642   L 29.379337,0.51103213   L 30.862332,0.83167973   L 32.295226,1.2525297   L 33.688039,1.7535416   L 35.050792,2.3246952   L 36.373463,3.0060713   L 37.656053,3.7375487   L 38.878522,4.5391677   L 40.05089,5.4309689   L 41.173157,6.3728712   L 42.225282,7.3849152   L 43.247346,8.4470604   L 44.169208,9.5793473   L 45.030948,10.761735   L 45.832567,12.004245   L 46.574065,13.276815   L 47.20534,14.629547   L 47.796534,16.00232   L 48.297546,17.415173   L 48.708376,18.868108   L 49.029023,20.361123   L 49.279529,21.884199   L 49.419813,23.427316   L 49.459894,25.010513   L 49.419813,26.593711   L 49.279529,28.136828   L 49.029023,29.669924   L 48.708376,31.152919   L 48.297546,32.605854   L 47.796534,34.028727   L 47.20534,35.4015   L 46.574065,36.724171   L 45.832567,38.006762   L 45.030948,39.249271   L 44.169208,40.431659   L 43.247346,41.553926   L 42.225282,42.646132   L 41.173157,43.648156   L 40.05089,44.600078   L 38.878522,45.481859   L 37.656053,46.283478   L 36.373463,47.024976   L 35.050792,47.676291   L 33.688039,48.247445   L 32.295226,48.748457   L 30.862332,49.169307   L 29.379337,49.509995   L 27.876301,49.75048   L 26.333185,49.900784   L 24.770028,49.940865   L 23.216891,49.900784   L 21.673774,49.75048   L 20.170739,49.509995   L 18.707784,49.169307   L 17.26487,48.748457   L 15.862036,48.247445   L 14.499284,47.676291   L 13.176613,47.024976   L 11.904042,46.283478   L 10.661533,45.481859   L 9.4991854,44.600078   L 8.3668985,43.648156   L 7.3247938,42.646132   L 6.3027295,41.553926   L 5.3808677,40.431659   L 4.5191272,39.249271   L 3.707488,38.006762   L 2.9760106,36.724171   L 2.3246952,35.4015   L 1.7335011,34.028727   L 1.2525297,32.605854   L 0.84169997,31.152919   L 0.52105236,29.669924   L 0.28056666,28.136828   L 0.13026309,26.593711   L 0.080161902,25.010513   L 0.13026309,23.427316   L 0.28056666,21.884199   L 0.52105236,20.361123   L 0.84169997,18.868108   L 1.2525297,17.415173   L 1.7335011,16.00232   L 2.3246952,14.629547   L 2.9760106,13.276815   L 3.707488,12.004245   L 4.5191272,10.761735   L 5.3808677,9.5793473   L 6.3027295,8.4470604   L 7.3247938,7.3849152   L 8.3668985,6.3728712   L 9.4991854,5.4309689   L 10.661533,4.5391677   L 11.904042,3.7375487   L 13.176613,3.0060713   L 14.499284,2.3246952   L 15.862036,1.7535416   L 17.26487,1.2525297   L 18.707784,0.83167973   L 20.170739,0.51103213   L 21.673774,0.27054642   L 23.216891,0.13026309   L 24.770028,0.080161902  z   " style="fill: rgb(216, 31, 6); fill-rule: evenodd; fill-opacity: 1; stroke: none;"></path>
</svg>