<svg xmlns:dc="http://purl.org/dc/elements/1.1/" xmlns:cc="http://creativecommons.org/ns#" xmlns:rdf="http://www.w3.org/1999/02/22-rdf-syntax-ns#" xmlns:svg="http://www.w3.org/2000/svg" xmlns="http://www.w3.org/2000/svg" id="svg7" height="16" width="16" version="1.0" preserveAspectRatio="xMidYMid meet" viewBox="0 0 32 32" style="font-size: 16px; color: rgb(28, 250, 42);">
  <metadata id="metadata11" style="fill: rgb(28, 250, 42);">
    <rdf:rdf style="fill: rgb(28, 250, 42);">
      <cc:work rdf:about="" style="fill: rgb(28, 250, 42);">
        <dc:format style="fill: rgb(28, 250, 42);">image/svg+xml</dc:format>
        <dc:type rdf:resource="http://purl.org/dc/dcmitype/StillImage" style="fill: rgb(28, 250, 42);"></dc:type>
      </cc:work>
    </rdf:rdf>
  </metadata>
  <defs id="defs3" style="fill: rgb(28, 250, 42);">
    <pattern y="0" x="0" height="6" width="6" patternUnits="userSpaceOnUse" id="EMFhbasepattern" style="fill: rgb(28, 250, 42);"></pattern>
  </defs>
  <path id="path5" d="  M 15.19068,30.491583   L 15.19068,30.491583   C 6.954045,30.491583 0.080161902,23.717903 0.080161902,15.110519   C 0.080161902,6.913964 6.954045,0.080161902 15.19068,0.080161902   C 23.838146,0.080161902 30.651907,6.913964 30.651907,15.110519   C 30.651907,23.717903 23.838146,30.491583 15.19068,30.491583   z  M 15.19068,2.9659904   L 15.19068,2.9659904   C 8.3769188,2.9659904 2.9860308,8.3368378 2.9860308,15.110519   C 2.9860308,21.894219 8.3769188,27.615775 15.19068,27.615775   C 22.004442,27.615775 27.756059,21.894219 27.756059,15.110519   C 27.756059,8.3368378 22.004442,2.9659904 15.19068,2.9659904   z  M 22.004442,12.274791   L 22.004442,12.274791   C 14.479244,20.120637 14.479244,20.120637 14.479244,20.120637   C 14.128535,20.481366 13.767807,20.481366 13.407078,20.481366   C 13.05637,20.481366 12.695641,20.481366 12.294832,20.120637   C 8.0161902,15.821955 8.0161902,15.821955 8.0161902,15.821955   C 7.6654819,15.471247 7.6654819,15.110519 7.6654819,14.75981   C 7.6654819,14.048373 8.3769188,13.346957 9.0883556,13.346957   C 9.4490842,13.346957 9.7997925,13.346957 10.160521,13.697665   C 13.407078,16.934202 13.407078,16.934202 13.407078,16.934202   C 20.23086,10.461128 20.23086,10.461128 20.23086,10.461128   C 20.23086,10.1004 20.581568,10.1004 20.942297,10.1004   C 22.004442,10.1004 22.365171,10.461128 22.365171,11.523273   C 22.365171,11.924083 22.365171,12.274791 22.004442,12.274791   z  M 22.004442,10.1004   L 22.004442,10.1004   z  M 10.160521,21.894219   L 10.160521,21.894219   z  M 20.581568,21.894219   L 20.581568,21.894219   z  M 22.004442,20.481366   L 22.004442,20.481366   z " style="fill: rgb(28, 250, 42); fill-rule: evenodd; fill-opacity: 1; stroke: none;"></path>
</svg>