<svg xmlns:dc="http://purl.org/dc/elements/1.1/" xmlns:cc="http://creativecommons.org/ns#" xmlns:rdf="http://www.w3.org/1999/02/22-rdf-syntax-ns#" xmlns:svg="http://www.w3.org/2000/svg" xmlns="http://www.w3.org/2000/svg" id="svg7" height="16" width="16" version="1.0" preserveAspectRatio="xMidYMid meet" viewBox="0 0 343 297" style="font-size: 16px; color: rgb(216, 31, 6);">
  <metadata id="metadata11" style="fill: rgb(216, 31, 6);">
    <rdf:rdf style="fill: rgb(216, 31, 6);">
      <cc:work rdf:about="" style="fill: rgb(216, 31, 6);">
        <dc:format style="fill: rgb(216, 31, 6);">image/svg+xml</dc:format>
        <dc:type rdf:resource="http://purl.org/dc/dcmitype/StillImage" style="fill: rgb(216, 31, 6);"></dc:type>
      </cc:work>
    </rdf:rdf>
  </metadata>
  <defs id="defs3" style="fill: rgb(216, 31, 6);">
    <pattern y="0" x="0" height="6" width="6" patternUnits="userSpaceOnUse" id="EMFhbasepattern" style="fill: rgb(216, 31, 6);"></pattern>
  </defs>
  <path id="path5" d="  M 86.855421,0.080161902   L 91.384568,16.43319   L 96.675254,32.786218   L 102.92788,48.698355   L 110.50318,64.410088   L 118.79994,79.881335   L 128.33921,94.911692   L 138.8805,109.94205   L 150.46389,125.21289   L 158.27968,133.95054   L 172.34809,117.59751   L 180.40436,107.57727   L 188.70112,98.398735   L 196.99787,89.460683   L 204.53309,81.604816   L 212.3088,74.430326   L 219.60353,67.897131   L 226.89826,61.564341   L 233.95251,56.113331   L 240.72619,51.544103   L 247.0189,47.415765   L 253.31161,43.487832   L 259.60432,40.642084   L 265.37598,38.477713   L 270.66666,36.954637   L 276.43832,36.072856   L 281.20795,35.631965   L 286.49864,36.072856   L 291.02779,36.954637   L 295.79742,38.477713   L 299.56503,40.201194   L 303.85369,43.247346   L 307.86178,46.533984   L 311.14842,50.221432   L 314.67555,54.389851   L 317.44113,58.718593   L 321.44923,63.728712   L 308.38284,69.861098   L 294.79539,77.917369   L 280.72698,87.055826   L 266.378,97.516954   L 251.78853,109.74164   L 236.95858,123.04852   L 221.36709,138.07888   L 205.53512,154.4319   L 191.70719,169.46226   L 201.76751,179.92339   L 209.30273,187.77926   L 216.59746,194.95375   L 224.37316,201.72743   L 231.6679,207.81973   L 238.96263,213.71163   L 246.01688,218.72175   L 253.31161,223.73187   L 260.08529,227.86021   L 267.38002,231.78814   L 274.19379,235.07478   L 280.72698,237.68004   L 287.50066,240.0849   L 294.27434,241.80838   L 301.0881,242.93064   L 307.38081,243.77234   L 313.67352,243.77234   L 324.73587,243.37153   L 335.27716,242.24927   L 342.05084,240.96668   L 342.05084,240.96668   L 337.80226,248.78246   L 334.27513,255.11525   L 330.98849,261.00715   L 327.98242,266.45816   L 324.73587,271.02739   L 321.68971,275.19581   L 319.44518,278.88326   L 316.43911,281.92941   L 314.15449,284.33427   L 307.86178,288.90349   L 300.56705,292.39054   L 292.79135,293.91361   L 283.73305,294.79539   L 278.44237,294.3545   L 272.67071,293.71321   L 266.89905,292.39054   L 261.08731,290.22617   L 254.83469,287.82131   L 248.54198,284.77516   L 241.72822,281.04763   L 234.95453,276.91929   L 228.18085,272.35006   L 221.12661,266.89905   L 213.83187,261.44804   L 206.01609,254.67436   L 198.24038,247.94076   L 190.70516,240.52579   L 182.40841,232.66992   L 174.11165,223.73187   L 158.27968,207.37884   L 150.2234,217.39908   L 142.92867,226.77802   L 136.11491,235.07478   L 128.86026,242.93064   L 122.56755,250.10513   L 115.75379,257.31971   L 109.46108,263.17152   L 103.68942,268.86302   L 97.396711,273.87314   L 92.146106,278.88326   L 86.334368,282.81119   L 81.083764,286.49864   L 76.27405,289.34439   L 71.023445,291.94965   L 66.734783,293.91361   L 61.96515,295.23629   L 57.436003,296.11807   L 53.147341,296.51888   L 53.147341,296.51888   L 49.900784,296.11807   L 43.608075,294.79539   L 37.796337,292.83143   L 31.543708,289.34439   L 25.250999,284.77516   L 18.95829,278.88326   L 12.665581,272.35006   L 6.3728712,264.29379   L 0.080161902,255.11525   L 4.3688237,255.99703   L 8.3769188,256.87881   L 11.663557,257.31971   L 14.669628,257.31971   L 19.960314,256.87881   L 25.731971,255.99703   L 31.022656,254.67436   L 36.794313,253.15129   L 43.087022,250.54602   L 48.89876,247.70028   L 55.151389,243.77234   L 60.963126,240.0849   L 67.255836,235.51567   L 73.789031,230.06466   L 80.041659,224.61365   L 86.855421,218.28086   L 93.14813,211.74766   L 99.921811,204.57317   L 106.69549,196.71731   L 113.99022,188.22015   L 126.81613,172.30801   L 117.27686,161.40599   L 109.22059,152.22745   L 101.92586,143.52989   L 94.631125,134.79224   L 87.857445,126.73597   L 82.085788,118.8801   L 76.27405,111.26472   L 71.504417,104.29063   L 67.255836,97.516954   L 62.726688,90.783354   L 59.44005,84.891454   L 56.433979,79.24004   L 54.149365,73.789031   L 52.66637,68.778912   L 51.143293,63.969198   L 50.14127,59.399969   L 50.14127,55.672441   L 50.622241,49.780541   L 52.145317,43.928722   L 55.151389,37.796337   L 59.44005,30.621847   L 64.209684,23.407275   L 70.502393,15.992299   L 78.318178,8.3769188   L 86.855421,0.080161902   z " style="fill: rgb(216, 31, 6); fill-rule: evenodd; fill-opacity: 1; stroke: none;"></path>
</svg>