<?xml version="1.0" standalone="no"?>
<!DOCTYPE svg PUBLIC "-//W3C//DTD SVG 20010904//EN"
 "http://www.w3.org/TR/2001/REC-SVG-20010904/DTD/svg10.dtd">
<svg version="1.0" xmlns="http://www.w3.org/2000/svg"
     width="779.000000pt" height="71.000000pt" viewBox="0 0 779.000000 71.000000"
     preserveAspectRatio="xMidYMid meet">
    <metadata>
        Created by potrace 1.15, written by Peter Selinger 2001-2017
    </metadata>
    <g transform="translate(0.000000,71.000000) scale(0.100000,-0.100000)"
       fill="#000000" stroke="none">
        <path d="M120 700 c0 -10 -107 -632 -114 -662 -3 -12 2 -18 13 -18 14 0 22 26
46 150 l29 151 60 -3 60 -3 12 -50 c7 -27 22 -94 34 -147 l22 -98 35 0 c31 0
35 3 30 21 -3 11 -41 167 -83 345 l-78 324 -33 0 c-18 0 -33 -4 -33 -10z"/>
        <path d="M1600 695 c0 -11 11 -15 40 -15 l40 0 0 -330 0 -330 30 0 30 0 0 330
0 330 45 0 c33 0 45 4 45 15 0 12 -19 15 -115 15 -96 0 -115 -3 -115 -15z"/>
        <path d="M2460 693 c1 -10 31 -164 68 -343 l67 -325 32 -3 c27 -3 33 1 38 20
11 48 135 653 135 661 0 4 -7 7 -15 7 -17 0 -18 -4 -87 -322 -29 -137 -55
-248 -58 -248 -4 0 -31 127 -61 283 l-54 282 -33 3 c-25 3 -32 0 -32 -15z"/>
        <path d="M4430 366 l0 -346 30 0 30 0 0 150 0 150 26 0 c44 0 91 -29 109 -67
10 -20 20 -75 24 -123 4 -47 11 -92 15 -98 6 -11 76 -18 76 -8 0 2 -7 20 -15
39 -8 20 -15 58 -15 84 -1 76 -16 125 -48 154 -16 15 -35 28 -43 31 -8 3 1 18
28 45 49 49 67 98 61 168 -8 98 -79 153 -209 163 l-69 5 0 -347z m140 292 c77
-53 98 -130 58 -208 -25 -49 -77 -90 -114 -90 l-24 0 0 160 0 160 24 0 c12 0
38 -10 56 -22z"/>
        <path d="M7020 365 l0 -345 115 0 c96 0 115 3 115 15 0 12 -16 15 -85 15 l-85
0 0 330 0 330 -30 0 -30 0 0 -345z"/>
        <path d="M731 502 c-21 -11 -46 -39 -65 -73 -29 -51 -31 -60 -31 -164 0 -99 3
-116 26 -160 48 -94 129 -121 192 -65 89 77 109 262 44 389 -40 78 -105 107
-166 73z m100 -39 c38 -42 51 -80 56 -169 9 -132 -41 -254 -104 -254 -115 0
-155 319 -53 422 36 35 69 36 101 1z"/>
        <path d="M5068 493 c-89 -97 -93 -163 -14 -250 65 -72 65 -113 1 -197 -40 -53
-12 -52 34 0 45 51 67 108 57 147 -3 14 -27 49 -52 79 -76 88 -78 116 -17 188
41 48 33 78 -9 33z"/>
        <path d="M390 260 l0 -240 53 0 c34 0 63 7 84 20 80 49 85 174 8 224 l-27 18
20 21 c34 36 44 74 32 118 -14 51 -57 79 -122 79 l-48 0 0 -240z m116 -23 c20
-18 28 -35 31 -74 5 -45 2 -53 -23 -81 -16 -17 -41 -34 -56 -38 l-28 -6 0 111
0 111 24 0 c14 0 37 -10 52 -23z"/>
        <path d="M970 276 l0 -225 26 -20 c39 -31 89 -28 125 8 l29 29 0 216 c0 209
-1 216 -20 216 -19 0 -20 -7 -20 -197 0 -222 -6 -246 -56 -251 -61 -6 -64 6
-64 239 0 133 -4 209 -10 209 -6 0 -10 -81 -10 -224z"/>
        <path d="M1200 490 c0 -5 11 -10 25 -10 l25 0 0 -230 0 -230 25 0 25 0 0 230
0 230 30 0 c17 0 30 5 30 10 0 6 -33 10 -80 10 -47 0 -80 -4 -80 -10z"/>
        <path d="M1820 260 c0 -233 1 -240 20 -240 19 0 20 7 20 125 l0 125 45 0 45 0
0 -125 0 -125 25 0 25 0 0 240 0 240 -25 0 -25 0 0 -105 0 -105 -45 0 -45 0 0
105 c0 98 -1 105 -20 105 -19 0 -20 -7 -20 -240z"/>
        <path d="M2050 260 l0 -240 85 0 c50 0 85 4 85 10 0 6 -28 10 -65 10 l-65 0 0
115 0 115 55 0 c30 0 55 5 55 10 0 6 -25 10 -55 10 l-55 0 0 95 0 95 65 0 c37
0 65 4 65 10 0 6 -35 10 -85 10 l-85 0 0 -240z"/>
        <path d="M2830 260 l0 -240 25 0 25 0 0 240 0 240 -25 0 -25 0 0 -240z"/>
        <path d="M2940 260 l0 -240 80 0 c47 0 80 4 80 10 0 6 -27 10 -60 10 l-60 0 0
230 c0 223 -1 230 -20 230 -19 0 -20 -7 -20 -240z"/>
        <path d="M3140 260 l0 -240 80 0 c47 0 80 4 80 10 0 6 -27 10 -60 10 l-60 0 0
230 c0 223 -1 230 -20 230 -19 0 -20 -7 -20 -240z"/>
        <path d="M3415 488 c-2 -7 -20 -110 -40 -228 -20 -118 -38 -221 -40 -228 -3
-6 2 -12 9 -12 14 0 17 10 46 153 l11 57 39 0 39 0 23 -102 c22 -96 26 -103
50 -106 l26 -3 -23 98 c-13 54 -38 162 -56 241 -31 132 -35 142 -56 142 -13 0
-25 -6 -28 -12z"/>
        <path d="M3715 481 c-89 -40 -141 -138 -132 -247 6 -81 39 -134 112 -179 42
-26 60 -30 132 -34 52 -2 95 2 113 9 l30 12 0 99 c0 92 -1 99 -20 99 -19 0
-20 -7 -20 -90 0 -105 -1 -106 -91 -104 -114 2 -199 82 -207 194 -6 79 17 139
69 183 38 33 96 57 138 57 11 0 21 5 21 10 0 17 -102 11 -145 -9z"/>
        <path d="M4020 260 l0 -240 85 0 c50 0 85 4 85 10 0 6 -28 10 -65 10 l-65 0 0
115 0 115 55 0 c30 0 55 5 55 10 0 6 -25 10 -55 10 l-55 0 0 95 0 95 65 0 c37
0 65 4 65 10 0 6 -35 10 -85 10 l-85 0 0 -240z"/>
        <path d="M4790 260 l0 -240 85 0 c50 0 85 4 85 10 0 6 -28 10 -65 10 l-65 0 0
115 0 115 55 0 c30 0 55 5 55 10 0 6 -25 10 -55 10 l-55 0 0 95 0 95 65 0 c37
0 65 4 65 10 0 6 -35 10 -85 10 l-85 0 0 -240z"/>
        <path d="M5180 260 l0 -240 25 0 25 0 0 240 0 240 -25 0 -25 0 0 -240z"/>
        <path d="M5290 260 l0 -240 43 0 c84 0 179 66 214 147 18 44 17 145 -3 191
-32 78 -128 142 -211 142 l-43 0 0 -240z m105 191 c72 -32 125 -113 125 -191
0 -75 -60 -169 -127 -197 -65 -27 -63 -35 -63 197 0 161 3 210 13 210 6 0 30
-9 52 -19z"/>
        <path d="M5600 260 l0 -240 85 0 c50 0 85 4 85 10 0 6 -28 10 -65 10 l-65 0 0
115 0 115 55 0 c30 0 55 5 55 10 0 6 -25 10 -55 10 l-55 0 0 95 0 95 65 0 c37
0 65 4 65 10 0 6 -35 10 -85 10 l-85 0 0 -240z"/>
        <path d="M5800 260 c0 -205 2 -240 15 -240 12 0 15 29 17 182 l3 183 61 -180
c43 -126 66 -181 78 -183 14 -3 16 20 16 237 0 154 -4 241 -10 241 -6 0 -10
-66 -11 -177 l-1 -178 -60 178 c-55 164 -61 177 -84 177 l-24 0 0 -240z"/>
        <path d="M6050 490 c0 -5 11 -10 25 -10 l25 0 0 -230 0 -230 25 0 25 0 0 230
0 230 30 0 c17 0 30 5 30 10 0 6 -33 10 -80 10 -47 0 -80 -4 -80 -10z"/>
        <path d="M6240 260 l0 -240 25 0 25 0 0 240 0 240 -25 0 -25 0 0 -240z"/>
        <path d="M6425 488 c-2 -7 -20 -110 -40 -228 -20 -118 -38 -221 -40 -228 -3
-6 2 -12 9 -12 14 0 17 10 46 153 l11 57 39 0 39 0 23 -102 c22 -96 26 -103
50 -106 l26 -3 -23 98 c-13 54 -38 162 -56 241 -31 132 -35 142 -56 142 -13 0
-25 -6 -28 -12z"/>
        <path d="M6620 260 l0 -240 80 0 c47 0 80 4 80 10 0 6 -27 10 -60 10 l-60 0 0
230 c0 223 -1 230 -20 230 -19 0 -20 -7 -20 -240z"/>
        <path d="M7300 260 l0 -240 25 0 25 0 0 240 0 240 -25 0 -25 0 0 -240z"/>
        <path d="M7410 260 c0 -233 1 -240 20 -240 19 0 20 7 20 125 l0 125 55 0 c30
0 55 5 55 10 0 6 -25 10 -55 10 l-55 0 0 95 0 95 65 0 c37 0 65 4 65 10 0 6
-35 10 -85 10 l-85 0 0 -240z"/>
        <path d="M7620 260 l0 -240 85 0 c50 0 85 4 85 10 0 6 -28 10 -65 10 l-65 0 0
115 0 115 55 0 c30 0 55 5 55 10 0 6 -25 10 -55 10 l-55 0 0 95 0 95 65 0 c37
0 65 4 65 10 0 6 -35 10 -85 10 l-85 0 0 -240z"/>
    </g>
</svg>
